inDegrees=no
num_controls=7
num_derivatives=13
num_iterations=86
num_multipliers=7
num_parameters=0
num_slacks=7
num_states=26
objective=0.444965
objective_accelerations=0.057355
objective_balance=0.003462
objective_effort=0.022999
objective_height=0.355652
objective_ligament=0.005498
solver_duration=1362.124833
status=Solve_Succeeded
success=true
DataType=double
version=3
OpenSimVersion=4.5
endheader
time	/jointset/ground_pelvis/pelvis_tilt/value	/jointset/ground_pelvis/pelvis_tx/value	/jointset/ground_pelvis/pelvis_ty/value	/jointset/hip_l/hip_flexion_l/value	/jointset/hip_l/hip_adduction_l/value	/jointset/hip_l/hip_rotation_l/value	/jointset/back/lumbar_extension/value	/jointset/patellofemoral_l/patellar_flexion_l/value	/jointset/knee_l/knee_flexion_l/value	/jointset/knee_l/knee_adduction_l/value	/jointset/knee_l/knee_rotation_l/value	/jointset/ankle_l/ankle_angle_l/value	/jointset/subtalar_l/subtalar_angle_l/value	/jointset/ground_pelvis/pelvis_tilt/speed	/jointset/ground_pelvis/pelvis_tx/speed	/jointset/ground_pelvis/pelvis_ty/speed	/jointset/hip_l/hip_flexion_l/speed	/jointset/hip_l/hip_adduction_l/speed	/jointset/hip_l/hip_rotation_l/speed	/jointset/back/lumbar_extension/speed	/jointset/patellofemoral_l/patellar_flexion_l/speed	/jointset/knee_l/knee_flexion_l/speed	/jointset/knee_l/knee_adduction_l/speed	/jointset/knee_l/knee_rotation_l/speed	/jointset/ankle_l/ankle_angle_l/speed	/jointset/subtalar_l/subtalar_angle_l/speed	/forceset/tau_hip_flexion_l	/forceset/tau_hip_adduction_l	/forceset/tau_hip_rotation_l	/forceset/tau_knee_flexion_l	/forceset/tau_ankle_angle_l	/forceset/tau_subtalar_angle_l	/forceset/tau_lumbar_extension	lambda_cid13_p0	lambda_cid13_p1	lambda_cid13_p2	lambda_cid13_p3	lambda_cid13_p4	lambda_cid13_p5	lambda_cid14_p0	/jointset/ground_pelvis/pelvis_tilt/accel	/jointset/ground_pelvis/pelvis_tx/accel	/jointset/ground_pelvis/pelvis_ty/accel	/jointset/hip_l/hip_flexion_l/accel	/jointset/hip_l/hip_adduction_l/accel	/jointset/hip_l/hip_rotation_l/accel	/jointset/back/lumbar_extension/accel	/jointset/patellofemoral_l/patellar_flexion_l/accel	/jointset/knee_l/knee_flexion_l/accel	/jointset/knee_l/knee_adduction_l/accel	/jointset/knee_l/knee_rotation_l/accel	/jointset/ankle_l/ankle_angle_l/accel	/jointset/subtalar_l/subtalar_angle_l/accel	gamma_cid13_p0	gamma_cid13_p1	gamma_cid13_p2	gamma_cid13_p3	gamma_cid13_p4	gamma_cid13_p5	gamma_cid14_p0
0.5	-0.3367932496506685	-0.03887847609175322	0.7586945484904845	1.102241408432608	-0.436068752737009	-0.2147138052928639	-0.2543145520262857	0.8148586590365284	0.8148586590366788	-0.1273559035135717	-0.1535612497110536	0.1111260643476176	-0.02999847005519289	-0.7680909480256851	-0.2043987236989935	-0.5362859675750067	2.475440386769437	-0.2077764135386443	0.7351505016395433	-0.1168839539435151	2.01323292574863	2.013232925748861	0.1315097828712504	-0.1062345793287832	0.4768621933848268	0.007144026238737626	-0.1659906042622451	0.02298562044082051	-0.01109770483852966	-0.2271719243626837	0.07929687490177915	0.0380871835014899	0.1655031176696577	-7.402470762719521	-18.08247392005929	5.787835928989989	-9.073867128446073	-522.8776349205688	-57.91636392567437	-24.65746818836269	0.7812259189941601	0.6613116026864508	-0.4488731985471712	-1.433060119737629	0.7195425504142793	-0.2085528888907063	1.115744529515289	-1.285279844294886	-1.285279844294867	0.1066168636721392	0.1805799688178345	-0.4339695711242501	0.5629586485998865	-5.5489742272392e-07	-4.454852075656037e-07	2.913963195638988e-06	1.553769737069691e-07	-6.600172491940013e-07	1.074486405945975e-08	-4.622695794926191e-07
0.51	-0.344433251245937	-0.04088921019375657	0.7533104491183649	1.12691933050217	-0.438111693401964	-0.2073714739647582	-0.25542884661586	0.8349234620891212	0.8349234620891149	-0.1260399134122594	-0.1546140361763712	0.1158716439639503	-0.02990089140856864	-0.759800870821613	-0.1977367573956335	-0.5404163484817158	2.459805919460031	-0.2007940230884737	0.7332120064022927	-0.1060204327039648	1.999447737819293	1.999447737819395	0.1316836453772224	-0.1043124282852833	0.4721674802126264	0.01235605416694134	-0.1715748632101194	0.02392542515267182	-0.01118673719724485	-0.2296275265832296	0.07817101407470904	0.03844501951235877	0.169750223539177	-7.966721025145169	-18.11839970316703	5.76993389314496	-8.824158813346497	-526.5572258420447	-57.53119594840227	-23.73357329193875	0.8691068699943563	0.6703730434404251	-0.3776165992602191	-1.679435505189476	0.6899041560964837	-0.2024714155192211	1.064835611263121	-1.467038295623072	-1.467038295642554	-0.02787337164930457	0.200165009661451	-0.5001498058662215	0.4976990439246547	-5.422884257466724e-07	-3.550339737237213e-07	2.951570477602881e-06	1.764922139710511e-07	-6.377765055341991e-07	8.735604829851296e-08	-4.562442475074506e-07
0.52	-0.3519871104193886	-0.04283297785287035	0.7478885467246728	1.151430748804912	-0.4400843467896603	-0.2000517223038995	-0.2564358700550201	0.854842033256746	0.8548420332565813	-0.1247223135490333	-0.155647174663744	0.1205676909254417	-0.02975171764686349	-0.7508624636623168	-0.1910054351210799	-0.5438465718895175	2.442139633404731	-0.1937189580871841	0.7306345681899642	-0.09542972386088598	1.983986548755156	1.983986548755127	0.1318317352548356	-0.1023049837399671	0.4669556624164945	0.01746304925490792	-0.1771591221579544	0.0248652298645351	-0.01127576955597383	-0.232083128803772	0.07704515324763936	0.03880285552324216	0.17399732940873	-8.533904058276329	-18.15415960698331	5.752404286587685	-8.612915243280975	-530.3125457956003	-57.20722285388479	-22.81112648517734	0.9108919100389627	0.6751827969251529	-0.3088416987656602	-1.83942386891656	0.7380774606380726	-0.3363414839062606	1.06118205022098	-1.620480071255004	-1.620480071255046	0.1014623380003965	0.1976386691810843	-0.5373904959105574	0.5419520805524528	-5.278182428683932e-07	-2.609050773775088e-07	2.984758186052625e-06	1.996768778195261e-07	-6.149226565318484e-07	1.645721407021432e-07	-4.485125543372299e-07
0.53	-0.3594484835034565	-0.04470913742061196	0.7424358323341999	1.175755717757444	-0.4419858366049593	-0.1927604775672259	-0.2573383496268641	0.8745979943419881	0.8745979943418783	-0.1234035439643882	-0.156659641877315	0.1252092400942786	-0.02955195962948972	-0.7413032821635459	-0.1842191898086611	-0.54657842755738	2.422527924462875	-0.1865735384110938	0.72752305180861	-0.08512605775412203	1.966956917881624	1.966956917881649	0.1319061447663558	-0.1001808484380714	0.4612851104846226	0.02246788694129736	-0.1826261308233204	0.02553968000091806	-0.01130028355404468	-0.2345547692100216	0.07593502799960371	0.0390572104731144	0.1781129056055131	-9.092849941329339	-18.14233944356428	5.722626372165212	-8.352155820502928	-533.9622884627105	-56.83709321518469	-21.89193161950507	0.9946939128372692	0.6814810620995901	-0.2377962873734449	-2.071059482468264	0.7032236342703256	-0.3126459361281532	1.005978803943192	-1.781428266898204	-1.781428266890185	-0.04191080952871559	0.2215449378272702	-0.5922256765627893	0.4763322835506113	-5.106399718095401e-07	-1.519489081482671e-07	3.022090476090637e-06	2.28402206675457e-07	-5.947171648453895e-07	2.447080668919515e-07	-4.378963021684768e-07
0.54	-0.366811012243929	-0.04651720740248948	0.7369593116297329	1.199874766605434	-0.4438157823408609	-0.1855031658385385	-0.2581395885550306	0.894176214384199	0.8941762143841365	-0.1220844984980868	-0.1576505189424315	0.1297920161168501	-0.02930283670107833	-0.7310935949431315	-0.177387517948262	-0.5486078346883122	2.400955612495093	-0.1794101422079749	0.7238479665921325	-0.07518159512579449	1.948438340148253	1.948438340148331	0.1318869115876179	-0.09798695405083672	0.4552010331632591	0.02733603146242509	-0.1880931394886184	0.02621413013732192	-0.01132479755225088	-0.2370264096162611	0.07482490275156903	0.0393115654230141	0.1822284818023561	-9.654807180560393	-18.1304504731741	5.693363002779305	-8.129837996919104	-537.6885669772474	-56.52752764416416	-20.98033911643245	1.040993054367694	0.6842681065212051	-0.1683519913796186	-2.231544474101879	0.7416727660437777	-0.4490552509309211	0.9893413545337023	-1.918269443223102	-1.918269443223062	0.08273379994879258	0.2115904862488914	-0.620095573808901	0.514613447500106	-4.90465518082818e-07	-2.658809658035466e-08	3.064008260651839e-06	2.632576329864457e-07	-5.774417706148107e-07	3.280744474834887e-07	-4.240886230226238e-07
0.55	-0.3740684833633987	-0.04825685316417807	0.7314660603625283	1.223768638794897	-0.4455738298036813	-0.178285160209301	-0.2588433339327467	0.9135616911294705	0.9135616911295588	-0.1207660080653735	-0.1586187749504543	0.1343118192783171	-0.02900555889559429	-0.7203084126806483	-0.1705450822249177	-0.5499185496367341	2.377504699555687	-0.17218879821511	0.719643179216087	-0.06565481844104958	1.928394309794726	1.928394309794758	0.1318146955703099	-0.09565431884749598	0.4486815377324916	0.03210017855482764	-0.1932356303186329	0.02667843020244598	-0.01129694440249307	-0.2398249244756953	0.07398087530449501	0.03935528912316091	0.1860352463083895	-10.14037781384896	-18.03280497764773	5.641682953397172	-7.818018224462459	-541.4103635183342	-56.12457942527611	-20.08022165759223	1.111045049647768	0.6837705838371638	-0.09396448296067805	-2.449063948133506	0.7135368354710417	-0.4230501499960881	0.9212451218826821	-2.086791386657188	-2.086791386664157	-0.05157593571888366	0.2462073833790758	-0.6795493148011255	0.4540443413315449	-4.669176541226463e-07	5.082865705420156e-08	3.035494650573463e-06	2.801388477530303e-07	-5.508421533795164e-07	3.966666531222102e-07	-4.093243590748095e-07
0.5600000000000001	-0.3812153498127515	-0.04992816671291395	0.7259633952985619	1.247418562006115	-0.4472594295026596	-0.1711125743876352	-0.2594544316843261	0.9327388632601574	0.9327388632603957	-0.1194481151194629	-0.1595632831372461	0.1387640929280582	-0.02866129381894195	-0.7089726609197996	-0.1637210753577204	-0.5504905940406355	2.352165816845342	-0.1649205894397171	0.7147640050778525	-0.05665206989879284	1.906777417231611	1.906777417231596	0.1317674142270715	-0.09323738980405737	0.4416951308181058	0.03673348569607988	-0.1983781211486116	0.0271427302675741	-0.01126909125269809	-0.2426234393351308	0.07313684785741811	0.03939901282331031	0.1898420108144576	-10.6280460972447	-17.93482224064228	5.589985420676573	-7.548510237660016	-545.1968484194517	-55.77718981448913	-19.19375685112625	1.151106954040808	0.6805823352918016	-0.02061788247552554	-2.609138428289537	0.7510457225493674	-0.5839326033686908	0.8845357260360696	-2.232841885140771	-2.232841885140736	0.08772073476271643	0.2284492542684632	-0.7134778705325869	0.4884454572700411	-4.393216978823351e-07	7.071254116873204e-08	2.922463366927597e-06	2.754510086663307e-07	-5.130534685385641e-07	4.475298488175536e-07	-3.934121933646416e-07
0.5700000000000001	-0.388246149960608	-0.05153138794773268	0.7204586158488241	1.270806107665698	-0.4488721886791799	-0.1639919868677356	-0.2599779757556531	0.9516926476818209	0.9516926476819072	-0.1181305136549775	-0.1604833305936235	0.1431444585003155	-0.02827129379910563	-0.6970840484398341	-0.1569309376441208	-0.5503491102220653	2.32504897301618	-0.1576385020696649	0.709270159386012	-0.04814524136426381	1.883773042982035	1.883773042982045	0.1317356970733355	-0.09076703367859811	0.4343247370364677	0.04123884491855671	-0.2036422898471883	0.02754005629454769	-0.01113669148806076	-0.244857745051813	0.07157380189388776	0.03943570299552392	0.1936904236121101	-11.32841935184041	-17.79172978436576	5.525597881034391	-7.07397939189281	-548.6961816803422	-55.39742473724079	-18.32264278222427	1.223175203616457	0.6771191435225135	0.04886103113938945	-2.807180643361538	0.7153157022268245	-0.5449381926069874	0.8204818675039195	-2.365121930367745	-2.365121930364074	-0.05111414319963316	0.2576656649523938	-0.7567694560966608	0.4270817606431886	-4.080064167387039e-07	1.466599981254015e-07	2.858951204373331e-06	2.8808749053906e-07	-4.804433658701348e-07	5.076680557261215e-07	-3.728742367460774e-07
0.58	-0.3951549766219368	-0.05306692987458966	0.7149587171406953	1.293913640230366	-0.4504124218904008	-0.1569289033328569	-0.2604191064515645	0.9704102110138827	0.9704102110138226	-0.1168137286025744	-0.1613784071141082	0.147449530269933	-0.02783714006586319	-0.6845779636141852	-0.1501852137653699	-0.5495144457188448	2.296163197861743	-0.150415396379865	0.7032632080735599	-0.04016939481603096	1.859533199312388	1.859533199312422	0.1316041318092842	-0.08824320262242667	0.42663637029014	0.04556422837730197	-0.2089064585457323	0.02793738232152648	-0.01100429172325299	-0.2470920507685048	0.07001075593035365	0.03947239316773999	0.1975388364097938	-12.03081526743474	-17.647944901441	5.46071532947199	-6.638982618056767	-552.2577284507772	-55.07006749242955	-17.46815593786137	1.274601423177486	0.6716995683220569	0.1180182544545876	-2.962924693344581	0.7392493864989284	-0.6865537274910009	0.778339328776845	-2.479935769154871	-2.479935769155316	0.06775111269966609	0.2391442404108997	-0.7770724634705353	0.4524503045237235	-3.718473636279588e-07	2.956204801788061e-07	2.859929059984869e-06	3.232858787775558e-07	-4.545774632403402e-07	5.798853470053991e-07	-3.463119942933231e-07
0.59	-0.4019361116041161	-0.05453535903274506	0.7094707328367358	1.316723734250941	-0.4518804232203018	-0.1499281344010161	-0.2607834087949628	0.9888786647615451	0.9888786647617031	-0.1154987336854177	-0.1622473926580845	0.15167589788981	-0.02736042399614625	-0.6715774739959367	-0.1435194113664922	-0.5479543521044811	2.265560621216179	-0.1431838551660123	0.6967938201132261	-0.03282189517823991	1.833894201796235	1.833894201796289	0.1313749460663745	-0.08553248320241981	0.4185560783338387	0.04974544236126105	-0.2134682774308672	0.02786187531790434	-0.01083293086953667	-0.2502710664105793	0.06940056474142837	0.03932390252739492	0.2007960634781782	-12.44425550643419	-17.46947900963555	5.384760836316928	-6.250573940136007	-555.9012570043928	-54.76969268600474	-16.63116574695405	1.323448261428606	0.6612703319628364	0.1941264754659164	-3.153240567287102	0.7148401103895445	-0.6419248501438832	0.6933320840617601	-2.645317856342836	-2.645317856339403	-0.07111948015624586	0.2908243673010094	-0.8356121091576801	0.3955276902067305	-3.374273978149287e-07	3.477084838593035e-07	2.741771848595258e-06	3.248523813656552e-07	-4.178310307134346e-07	6.163929399041077e-07	-3.220512255394741e-07
